Coordinates
version=1
nRows=16
nColumns=40
inDegrees=yes

Units are S.I. units (second, meters, Newtons, ...)
Angles are in degrees.

endheader
time	pelvis_tilt	pelvis_list	pelvis_rotation	pelvis_tx	pelvis_ty	pelvis_tz	hip_flexion_r	hip_adduction_r	hip_rotation_r	knee_angle_r	knee_angle_r_beta	ankle_angle_r	subtalar_angle_r	mtp_angle_r	hip_flexion_l	hip_adduction_l	hip_rotation_l	knee_angle_l	knee_angle_l_beta	ankle_angle_l	subtalar_angle_l	mtp_angle_l	lumbar_extension	lumbar_bending	lumbar_rotation	arm_flex_r	arm_add_r	arm_rot_r	elbow_flex_r	pro_sup_r	wrist_flex_r	wrist_dev_r	arm_flex_l	arm_add_l	arm_rot_l	elbow_flex_l	pro_sup_l	wrist_flex_l	wrist_dev_l
      0.00000000	     -1.75705985	      1.24472780	     -0.76997312	     -1.37807802	      0.87644665	     -1.01783104	     -7.76317047	      0.45056084	    -20.71422413	    -17.00559225	     -0.29680358	     17.30519092	      2.82690869	     -4.42253885	     28.23205189	     -1.36998273	      7.21604657	    -25.85261345	     -0.45121322	      0.30155175	      1.06043187	     -4.41918785	    -12.21182685	      1.35863081	      4.72627455	     14.49109791	    -11.24352730	     16.15450569	     18.05435682	     89.95437384	      0.00000000	      0.00000000	      2.91249984	      5.59164792	     -1.22674805	     21.19350420	     89.95437384	      0.00000000	      0.00000000
      0.01000000	     -1.74971804	      1.19057742	     -0.51500289	     -1.37254645	      0.87541350	     -1.01772999	     -8.06087043	      0.55032404	    -20.42262316	    -17.27676983	     -0.30153652	     17.46508692	      2.71535427	     -4.53864514	     28.61902018	     -1.51902856	      7.01058038	    -24.63461395	     -0.42995512	     -0.39412550	      1.11928569	     -4.36312477	    -12.44275562	      1.32455797	      4.26680625	     15.09947684	    -11.09110053	     16.29204969	     18.29415059	     89.95437384	      0.00000000	      0.00000000	      2.80506221	      5.65337687	     -1.63254477	     19.59109617	     89.95437384	      0.00000000	      0.00000000
      0.02000000	     -1.76966342	      1.24527988	     -0.55660278	     -1.36614310	      0.87427469	     -1.01747152	     -8.36369039	      0.43991165	    -20.07980175	    -17.57042326	     -0.30666174	     17.44191897	      2.64515851	     -4.62659594	     28.89009914	     -1.60855253	      7.17822650	    -23.44321406	     -0.40916127	     -0.90630833	      1.16597445	     -4.30785932	    -12.54514065	      1.12354844	      4.06601019	     15.49443325	    -10.97999383	     16.47164256	     18.70590992	     89.95437384	      0.00000000	      0.00000000	      2.44708364	      5.67851377	     -2.03656204	     18.08017744	     89.95437384	      0.00000000	      0.00000000
      0.03000000	     -1.75509340	      1.28188253	     -0.67207389	     -1.35956884	      0.87321878	     -1.01715262	     -8.65591757	      0.29541599	    -19.90624621	    -17.95377214	     -0.31335244	     17.38880169	      2.58077408	     -4.77809903	     29.07070686	     -1.58621058	      7.30663644	    -22.23870927	     -0.38813870	     -1.31164080	      0.99797601	     -4.24978644	    -12.68597442	      0.91730752	      3.97447871	     15.79542313	    -10.93486851	     16.79387800	     19.27640024	     89.95437384	      0.00000000	      0.00000000	      2.13435457	      5.71449613	     -2.32419449	     16.75447721	     89.95437384	      0.00000000	      0.00000000
      0.04000000	     -1.90439995	      1.13997974	     -0.60425697	     -1.35292554	      0.87193682	     -1.01691410	     -8.85876442	      0.43193269	    -19.82409641	    -18.17661935	     -0.31724185	     17.31314933	      2.60176800	     -4.79549709	     29.59123017	     -1.42998775	      7.95002781	    -21.49613619	     -0.37517835	     -1.42737090	      1.10954717	     -4.17312733	    -12.68101447	      0.96503220	      3.44905185	     16.28036555	    -10.69129565	     16.87921872	     19.63656987	     89.95437384	      0.00000000	      0.00000000	      1.45526126	      5.76290195	     -2.64587380	     15.71851770	     89.95437384	      0.00000000	      0.00000000
      0.05000000	     -1.82220119	      1.48870099	     -1.07117142	     -1.34593294	      0.87132532	     -1.01634308	     -9.07599107	     -0.23901193	    -19.62236541	    -18.86469838	     -0.32925110	     17.15819411	      3.18426501	     -5.34033222	     29.11559001	     -1.67500872	      8.24389944	    -19.43695732	     -0.33923890	     -2.38780104	      1.06493277	     -4.21633615	    -12.89696192	      0.39182536	      3.67780316	     16.52173811	    -10.71142829	     17.69879778	     20.11400696	     89.95437384	      0.00000000	      0.00000000	      1.13170546	      6.05692558	     -5.47444741	     14.42379367	     89.95437384	      0.00000000	      0.00000000
      0.06000000	     -2.01997534	      1.47711510	     -1.30642519	     -1.33894243	      0.87033114	     -1.01601630	     -9.04416691	     -0.41463500	    -19.44584492	    -19.45049756	     -0.33947522	     16.89062270	      3.25459488	     -5.48158649	     29.55472602	     -1.47450972	      9.18111030	    -18.77839511	     -0.32774482	     -2.98392296	      0.70495916	     -4.09332683	    -12.80419559	      0.26037622	      3.63273996	     16.77750843	    -10.60148614	     17.90370221	     20.55415367	     89.95437384	      0.00000000	      0.00000000	      0.73557388	      6.06027906	     -6.14482091	     13.29691690	     89.95437384	      0.00000000	      0.00000000
      0.07000000	     -2.20099962	      1.25392720	     -1.44821634	     -1.33138157	      0.86926050	     -1.01584536	     -9.17164837	     -0.30063686	    -19.19819832	    -19.81965771	     -0.34591828	     16.63217171	      3.32064067	     -5.50444718	     29.77439955	     -1.17158755	      9.54939254	    -17.91244021	     -0.31263106	     -3.04373051	      0.50670714	     -4.04841551	    -12.66893816	      0.41150654	      3.36361765	     17.06663213	    -10.42160366	     18.03121093	     20.86050391	     89.95437384	      0.00000000	      0.00000000	      0.09618443	      5.99236378	     -6.47841581	     12.37147905	     89.95437384	      0.00000000	      0.00000000
      0.08000000	     -2.40058324	      1.26466129	     -1.90949814	     -1.32391839	      0.86860687	     -1.01525131	     -9.08127573	     -0.53531039	    -18.69164014	    -20.48617110	     -0.35755114	     15.97518654	      3.38173860	     -5.53091311	     29.72593225	     -1.01135672	      9.99777262	    -16.66891840	     -0.29092751	     -3.46728572	     -0.04899799	     -4.01289005	    -12.57185416	      0.21372107	      3.48839767	     17.24734641	    -10.30177215	     18.39208010	     21.24668239	     89.95437384	      0.00000000	      0.00000000	     -0.30350454	      5.92985147	     -7.19297073	     11.27397856	     89.95437384	      0.00000000	      0.00000000
      0.09000000	     -2.71578729	      1.23276030	     -2.04679827	     -1.31598120	      0.86772663	     -1.01497476	     -9.13777031	     -0.57044021	    -18.58385096	    -20.86247099	     -0.36411881	     15.85615507	      3.29940515	     -5.48112087	     29.82704266	     -0.93143315	     10.37231426	    -15.69748125	     -0.27397273	     -3.23140938	     -0.25977164	     -4.03134234	    -12.27260858	      0.13582687	      3.21463570	     17.35337282	    -10.09828555	     18.55456759	     21.58265319	     89.95437384	      0.00000000	      0.00000000	     -0.93574763	      5.93077999	     -7.39571234	     10.64998765	     89.95437384	      0.00000000	      0.00000000
      0.10000000	     -2.74989743	      1.31434552	     -2.77519025	     -1.30747624	      0.86748798	     -1.01444941	     -9.19348344	     -1.04778959	    -17.81034828	    -21.51148658	     -0.37544627	     14.84098591	      3.58547236	     -5.47477267	     29.31473458	     -0.80187444	     10.62108429	    -14.45641958	     -0.25231212	     -2.63888454	     -0.98921966	     -4.25886621	    -12.24265067	     -0.15331800	      3.55141571	     17.39979936	    -10.04330358	     19.02112964	     21.95368815	     89.95437384	      0.00000000	      0.00000000	     -1.55417485	      5.84204462	     -8.49674593	      9.83880439	     89.95437384	      0.00000000	      0.00000000
      0.11000000	     -2.96412068	      1.23380744	     -2.99072286	     -1.29879649	      0.86701968	     -1.01438766	     -9.30701962	     -1.14383841	    -17.58208627	    -21.91147005	     -0.38242730	     14.29127306	      3.63934082	     -5.44929770	     29.10812170	     -0.70555450	     11.09865200	    -13.73472441	     -0.23971616	     -2.14417085	     -1.14967969	     -4.34859396	    -12.01417995	     -0.17223191	      3.36352826	     17.39272795	     -9.91756149	     19.25005852	     22.31613842	     89.95437384	      0.00000000	      0.00000000	     -2.27063562	      5.80747795	     -9.29315238	      9.40266520	     89.95437384	      0.00000000	      0.00000000
      0.12000000	     -2.80015063	      1.54138703	     -3.64726355	     -1.28921309	      0.86727997	     -1.01398514	     -9.70367110	     -1.95343462	    -17.55292401	    -22.53353533	     -0.39328438	     13.29442394	      4.57904994	     -6.09651467	     28.30818927	     -0.78547658	     12.27340938	    -13.04625062	     -0.22770003	     -2.11281969	     -1.95102386	     -5.47772794	    -12.07741645	     -0.68717890	      3.72626559	     17.12372640	    -10.00792280	     19.92810519	     22.92071377	     89.95437384	      0.00000000	      0.00000000	     -3.28322957	      6.44121180	    -15.31063346	      9.94355917	     89.95437384	      0.00000000	      0.00000000
      0.13000000	     -3.03915189	      1.48803734	     -3.84874512	     -1.27981988	      0.86698778	     -1.01408608	     -9.78173160	     -2.09204714	    -17.25092606	    -22.99635403	     -0.40136209	     12.88554700	      4.44362773	     -5.97883154	     28.32323095	     -0.72155187	     12.14476459	    -13.38516855	     -0.23361526	     -2.11995719	     -1.86360526	     -5.37363946	    -11.77199090	     -0.70339248	      3.53110607	     16.91704605	     -9.87560602	     19.86580168	     23.34813514	     89.95437384	      0.00000000	      0.00000000	     -4.07976325	      6.41513433	    -15.29778340	      9.98108424	     89.95437384	      0.00000000	      0.00000000
      0.14000000	     -3.33700458	      1.50030834	     -4.44174468	     -1.27023157	      0.86683331	     -1.01367583	     -9.51266407	     -2.42261720	    -16.60372695	    -23.79223207	     -0.41525279	     11.16632419	      4.44520701	     -5.78508035	     27.78340002	     -0.61268111	     12.29016725	    -12.79629110	     -0.22333741	     -1.79384642	     -1.86733256	     -5.40774431	    -11.34824788	     -0.84673299	      3.65131246	     16.81264172	     -9.71053650	     20.21623690	     23.41577448	     89.95437384	      0.00000000	      0.00000000	     -4.69372389	      6.26254897	    -15.72259071	      9.48816215	     89.95437384	      0.00000000	      0.00000000
      0.15000000	     -3.52605168	      1.52277660	     -4.67794277	     -1.26024671	      0.86683859	     -1.01388177	     -9.48327508	     -2.69222305	    -16.19108226	    -24.53692822	     -0.42825019	     10.18123788	      4.29514566	     -5.59080371	     27.61265799	     -0.66672549	     12.58887289	    -13.50119044	     -0.23564023	     -2.14872558	     -1.37995714	     -5.21248581	    -11.04026595	     -0.92686662	      3.37597321	     16.56430960	     -9.59144088	     20.30220118	     23.78806954	     89.95437384	      0.00000000	      0.00000000	     -5.40947032	      6.24372148	    -16.00264645	      9.52287986	     89.95437384	      0.00000000	      0.00000000
